#!OML:ASF I:\salsa\salsa 7_09\Patient 1\Session 1\dancermale.ASF
:FULLY-SPECIFIED
:DEGREES
2102
root 12.9075 17.4589 -0.634319 -358.886 264.713 -354.604
lowerback -7.56113 -2.18422 5.15574
upperback -2.09904 -3.33886 -0.535634
thorax 1.73326 -1.68699 -3.73675
lowerneck -4.68462 6.25354 6.00369
upperneck 14.8787 8.79014 -7.72203
head 5.86734 3.99795 -2.82555
rclavicle 9.67056e-015 -1.16289e-014
rhumerus -53.8979 11.716 -105.493
rradius 91.8667
rwrist 35.8841
rhand -8.61368 7.57623
rfingers 7.12502
rthumb 17.3183 -21.6722
lclavicle 9.67056e-015 -1.16289e-014
lhumerus -6.78661 -21.3035 83.8779
lradius 87.6864
lwrist -18.1415
lhand -25.4787 59.9224
lfingers 7.12502
lthumb 1.04927 1169.9
rfemur -7.95862 3.31443 23.7394
rtibia 11.6232
rfoot -14.6351 -9.44749
rtoes 9.6816
lfemur -18.1645 3.60454 -19.6051
ltibia 32.4324
lfoot 340.04 8.03246
ltoes -11.3205
2103
root 12.9504 17.4536 -0.673285 -359.899 264.767 -353.456
lowerback -7.41764 -2.22534 5.16701
upperback -2.20631 -3.38652 -0.516585
thorax 1.53817 -1.71984 -3.71586
lowerneck -4.54204 6.27908 6.06191
upperneck 14.7058 8.81689 -7.72008
head 5.79323 4.0221 -2.83719
rclavicle 2.579e-014 6.08778e-015
rhumerus -54.0858 11.4981 -105.683
rradius 91.6202
rwrist 36.0426
rhand -8.45852 7.77204
rfingers 7.12502
rthumb 17.4676 -21.4632
lclavicle 2.579e-014 6.08778e-015
lhumerus -6.5767 -20.8103 83.6468
lradius 84.9149
lwrist -19.6075
lhand -25.9653 59.3718
lfingers 7.12502
lthumb 0.579229 1169.35
rfemur -8.15011 2.62716 23.9481
rtibia 11.3244
rfoot -14.2937 -8.89887
rtoes 9.32059
lfemur -19.4501 4.04959 -19.2274
ltibia 34.1674
lfoot 340.257 7.72858
ltoes -11.9088
2104
root 12.9915 17.4514 -0.711036 -360.678 264.87 -352.606
lowerback -7.23052 -2.25469 5.19491
upperback -2.2914 -3.41565 -0.552885
thorax 1.33925 -1.74289 -3.75841
lowerneck -4.40891 6.32986 6.14842
upperneck 14.5089 8.86397 -7.63417
head 5.71256 4.06444 -2.82515
rclavicle -1.87882e-014 -8.54463e-015
rhumerus -54.2763 11.1763 -105.867
rradius 91.3483
rwrist 36.277
rhand -8.55746 7.92625
rfingers 7.12502
rthumb 17.3724 -21.3174
lclavicle -1.87882e-014 -8.54463e-015
lhumerus -6.1125 -20.3739 83.2359
lradius 82.153
lwrist -20.773
lhand -26.4119 58.952
lfingers 7.12502
lthumb 0.147891 1168.93
rfemur -8.22804 2.26282 24.1574
rtibia 11.0367
rfoot -14.0218 -8.66972
rtoes 8.7482
lfemur -20.6721 4.62441 -18.8848
ltibia 35.9541
lfoot 340.18 7.13051
ltoes -12.6946
2105
root 13.0248 17.447 -0.749131 -362.499 264.891 -350.79
lowerback -7.1737 -2.21227 5.32744
upperback -2.24502 -3.36367 -0.615731
thorax 1.34912 -1.71544 -3.8926
lowerneck -4.33812 6.34003 6.23719
upperneck 14.3079 8.84138 -7.451
head 5.63226 4.07881 -2.78653
rclavicle 5.95189e-015 -2.23633e-015
rhumerus -54.3066 10.8381 -106.058
rradius 91.0558
rwrist 36.4242
rhand -8.72377 7.85385
rfingers 7.12502
rthumb 17.2123 -21.4038
lclavicle 5.95189e-015 -2.23633e-015
lhumerus -5.32031 -20.0557 82.6252
lradius 79.5081
lwrist -21.9898
lhand -26.3836 58.4507
lfingers 7.12502
lthumb 0.175205 1168.43
rfemur -8.15282 2.19095 24.5047
rtibia 10.7465
rfoot -13.8705 -8.58886
rtoes 8.58003
lfemur -21.7486 5.34178 -18.4283
ltibia 37.7323
lfoot 340.026 6.57951
ltoes -13.8527
2106
root 13.0531 17.4415 -0.784637 -362.523 264.875 -350.886
lowerback -7.19811 -2.26997 5.09802
upperback -2.05268 -3.42583 -0.56845
thorax 1.57229 -1.73298 -3.72712
lowerneck -4.37943 6.41305 6.27109
upperneck 14.0682 8.92909 -7.44018
head 5.57234 4.13054 -2.78137
rclavicle -6.54514e-015 -3.8266e-015
rhumerus -54.1804 10.9806 -106.149
rradius 90.742
rwrist 36.3017
rhand -8.35656 7.63194
rfingers 7.12502
rthumb 17.5657 -21.5945
lclavicle -6.54514e-015 -3.8266e-015
lhumerus -4.33483 -19.3914 81.9723
lradius 77.0412
lwrist -23.4252
lhand -25.9989 57.9739
lfingers 7.12502
lthumb 0.546818 1167.95
rfemur -7.88075 2.01661 24.6292
rtibia 10.3133
rfoot -13.6294 -8.41971
rtoes 8.57069
lfemur -22.5214 5.79021 -18.1852
ltibia 39.1918
lfoot 339.874 6.25388
ltoes -14.9286
2107
root 13.0752 17.4339 -0.818951 -362.957 264.892 -350.672
lowerback -7.2384 -2.29248 4.97637
upperback -1.79263 -3.44797 -0.593644
thorax 1.86751 -1.72725 -3.69747
lowerneck -4.48366 6.49192 6.41135
upperneck 13.8198 9.01842 -7.46482
head 5.52722 4.18572 -2.80216
rclavicle -4.79063e-015 -7.65321e-015
rhumerus -53.9715 10.9939 -106.23
rradius 90.437
rwrist 36.0647
rhand -7.75752 7.57411
rfingers 7.12502
rthumb 18.1421 -21.5998
lclavicle -4.79063e-015 -7.65321e-015
lhumerus -3.1414 -18.936 81.215
lradius 74.5482
lwrist -24.5283
lhand -26.13 57.3871
lfingers 7.12502
lthumb 0.420165 1167.37
rfemur -7.44455 1.78375 24.7736
rtibia 9.81269
rfoot -13.3717 -8.25592
rtoes 8.70209
lfemur -22.955 6.02174 -17.9154
ltibia 40.2006
lfoot 339.682 5.99009
ltoes -15.7454
2108
root 13.1096 17.4275 -0.851239 -363.326 264.492 -350.491
lowerback -6.61852 -2.16674 4.9285
upperback -1.96301 -3.24139 -0.609643
thorax 1.36874 -1.64266 -3.63491
lowerneck -4.20778 6.5199 6.47265
upperneck 13.7782 9.03999 -7.33019
head 5.4656 4.21421 -2.77757
rclavicle -2.05595e-014 -8.94531e-016
rhumerus -54.4305 10.8277 -106.37
rradius 90.2001
rwrist 36.0095
rhand -7.54418 8.02
rfingers 7.12502
rthumb 18.3474 -21.1347
lclavicle -2.05595e-014 -8.94531e-016
lhumerus -2.46699 -18.6777 80.6907
lradius 72.0972
lwrist -25.2217
lhand -26.6133 57.2438
lfingers 7.12502
lthumb -0.0466471 1167.22
rfemur -7.29679 1.84755 24.9684
rtibia 9.65964
rfoot -13.2069 -7.94789
rtoes 9.12694
lfemur -23.292 6.49543 -17.5883
ltibia 40.9708
lfoot 339.537 6.09092
ltoes -15.4549
2109
root 13.1315 17.4251 -0.879099 -363.737 264.232 -350.197
lowerback -6.62417 -2.13221 4.77058
upperback -1.80182 -3.18678 -0.519236
thorax 1.55811 -1.60498 -3.45461
lowerneck -4.25905 6.57196 6.43987
upperneck 13.6573 9.10397 -7.29096
head 5.43833 4.24883 -2.75409
rclavicle 2.62815e-014 3.08116e-015
rhumerus -54.3968 11.0918 -106.371
rradius 89.8015
rwrist 36.0224
rhand -7.47936 8.28663
rfingers 7.12502
rthumb 18.4097 -20.8622
lclavicle 2.62815e-014 3.08116e-015
lhumerus -1.229 -18.0982 80.0734
lradius 69.7087
lwrist -25.856
lhand -26.7022 57.2524
lfingers 7.12502
lthumb -0.132481 1167.23
rfemur -7.06417 1.89797 25.1496
rtibia 9.32616
rfoot -13.0355 -7.73339
rtoes 9.61598
lfemur -23.3912 6.61273 -17.3203
ltibia 41.309
lfoot 339.571 6.63716
ltoes -12.4269
2110
root 13.1454 17.4257 -0.903385 -364.54 263.948 -349.424
lowerback -6.6325 -2.07329 4.75128
upperback -1.80045 -3.10937 -0.442533
thorax 1.57686 -1.56575 -3.35973
lowerneck -4.22012 6.60502 6.49363
upperneck 13.7264 9.14772 -7.29324
head 5.45898 4.27164 -2.76087
rclavicle -1.6046e-014 -5.11871e-015
rhumerus -54.5806 11.2177 -106.438
rradius 89.3247
rwrist 36.123
rhand -7.52232 8.10693
rfingers 7.12502
rthumb 18.3684 -21.0458
lclavicle -1.6046e-014 -5.11871e-015
lhumerus -0.230208 -17.3529 79.5273
lradius 67.4107
lwrist -26.6691
lhand -26.5075 56.305
lfingers 7.12502
lthumb 0.0555468 1166.28
rfemur -6.81891 2.27752 25.4266
rtibia 8.86322
rfoot -12.7669 -7.82737
rtoes 10.2027
lfemur -23.2255 6.43947 -16.9874
ltibia 41.1349
lfoot 339.899 7.77137
ltoes -8.48661
2111
root 13.1517 17.4282 -0.923336 -365.242 263.654 -348.695
lowerback -6.71522 -1.96543 4.8521
upperback -1.86917 -2.97837 -0.410204
thorax 1.56039 -1.50301 -3.37571
lowerneck -4.09065 6.56645 6.56298
upperneck 13.7738 9.10093 -7.3455
head 5.45368 4.24972 -2.79601
rclavicle 8.07407e-015 -2.88238e-015
rhumerus -54.8442 11.1395 -106.455
rradius 88.9157
rwrist 36.2964
rhand -7.5114 8.14982
rfingers 7.12502
rthumb 18.3789 -21.0019
lclavicle 8.07407e-015 -2.88238e-015
lhumerus 0.668533 -16.8696 79.0436
lradius 65.2444
lwrist -27.2178
lhand -26.5294 56.2803
lfingers 7.12502
lthumb 0.0344742 1166.26
rfemur -6.66514 2.55213 25.6871
rtibia 8.51383
rfoot -12.5317 -7.81323
rtoes 10.6051
lfemur -22.8232 6.01937 -16.6741
ltibia 40.4538
lfoot 340.362 8.51777
ltoes -6.31729
